<mxfile host="app.diagrams.net" modified="2023-06-07T17:35:51.270Z" agent="Mozilla/5.0 (Windows NT 10.0; Win64; x64) AppleWebKit/537.36 (KHTML, like Gecko) Chrome/114.0.0.0 Safari/537.36" etag="olMFreXrTvafKHCEye5Q" version="21.3.7" type="device">
  <diagram name="Page-1" id="b9gMRy1G1t68kS930VQQ">
    <mxGraphModel dx="2261" dy="764" grid="1" gridSize="10" guides="1" tooltips="1" connect="1" arrows="1" fold="1" page="1" pageScale="1" pageWidth="827" pageHeight="1169" math="0" shadow="0">
      <root>
        <mxCell id="0" />
        <mxCell id="1" parent="0" />
        <mxCell id="hVqU2oED-kjXTOKx9nI9-1" value="Usuario" style="rounded=0;whiteSpace=wrap;html=1;" vertex="1" parent="1">
          <mxGeometry x="120" y="230" width="120" height="60" as="geometry" />
        </mxCell>
        <mxCell id="hVqU2oED-kjXTOKx9nI9-2" value="Pista" style="rounded=0;whiteSpace=wrap;html=1;" vertex="1" parent="1">
          <mxGeometry x="560" y="230" width="120" height="60" as="geometry" />
        </mxCell>
        <mxCell id="hVqU2oED-kjXTOKx9nI9-4" value="&lt;u&gt;Dni&lt;/u&gt;" style="ellipse;whiteSpace=wrap;html=1;" vertex="1" parent="1">
          <mxGeometry x="40" y="130" width="80" height="50" as="geometry" />
        </mxCell>
        <mxCell id="hVqU2oED-kjXTOKx9nI9-5" value="Nombre_Completo" style="ellipse;whiteSpace=wrap;html=1;" vertex="1" parent="1">
          <mxGeometry x="130" y="120" width="110" height="50" as="geometry" />
        </mxCell>
        <mxCell id="hVqU2oED-kjXTOKx9nI9-6" value="Email     " style="ellipse;whiteSpace=wrap;html=1;" vertex="1" parent="1">
          <mxGeometry x="10" y="190" width="80" height="50" as="geometry" />
        </mxCell>
        <mxCell id="hVqU2oED-kjXTOKx9nI9-7" value="Contraseña" style="ellipse;whiteSpace=wrap;html=1;" vertex="1" parent="1">
          <mxGeometry x="10" y="260" width="80" height="50" as="geometry" />
        </mxCell>
        <mxCell id="hVqU2oED-kjXTOKx9nI9-8" value="Teléfono  " style="ellipse;whiteSpace=wrap;html=1;" vertex="1" parent="1">
          <mxGeometry x="50" y="320" width="80" height="50" as="geometry" />
        </mxCell>
        <mxCell id="hVqU2oED-kjXTOKx9nI9-10" value="Dirección" style="ellipse;whiteSpace=wrap;html=1;" vertex="1" parent="1">
          <mxGeometry x="250" y="140" width="80" height="50" as="geometry" />
        </mxCell>
        <mxCell id="hVqU2oED-kjXTOKx9nI9-11" value="Dirección" style="ellipse;whiteSpace=wrap;html=1;" vertex="1" parent="1">
          <mxGeometry x="255" y="145" width="70" height="40" as="geometry" />
        </mxCell>
        <mxCell id="hVqU2oED-kjXTOKx9nI9-13" value="" style="endArrow=none;html=1;rounded=0;" edge="1" parent="1" source="hVqU2oED-kjXTOKx9nI9-1">
          <mxGeometry width="50" height="50" relative="1" as="geometry">
            <mxPoint x="220" y="240" as="sourcePoint" />
            <mxPoint x="270" y="190" as="targetPoint" />
          </mxGeometry>
        </mxCell>
        <mxCell id="hVqU2oED-kjXTOKx9nI9-14" value="" style="endArrow=none;html=1;rounded=0;exitX=1;exitY=0;exitDx=0;exitDy=0;entryX=0.5;entryY=1;entryDx=0;entryDy=0;" edge="1" parent="1" target="hVqU2oED-kjXTOKx9nI9-5">
          <mxGeometry width="50" height="50" relative="1" as="geometry">
            <mxPoint x="180" y="230" as="sourcePoint" />
            <mxPoint x="210" y="190" as="targetPoint" />
          </mxGeometry>
        </mxCell>
        <mxCell id="hVqU2oED-kjXTOKx9nI9-16" value="" style="endArrow=none;html=1;rounded=0;entryX=0.825;entryY=1;entryDx=0;entryDy=0;entryPerimeter=0;" edge="1" parent="1" target="hVqU2oED-kjXTOKx9nI9-4">
          <mxGeometry width="50" height="50" relative="1" as="geometry">
            <mxPoint x="130" y="230" as="sourcePoint" />
            <mxPoint x="180" y="180" as="targetPoint" />
          </mxGeometry>
        </mxCell>
        <mxCell id="hVqU2oED-kjXTOKx9nI9-17" value="" style="endArrow=none;html=1;rounded=0;exitX=1;exitY=0.7;exitDx=0;exitDy=0;exitPerimeter=0;entryX=0;entryY=0.25;entryDx=0;entryDy=0;" edge="1" parent="1" source="hVqU2oED-kjXTOKx9nI9-6" target="hVqU2oED-kjXTOKx9nI9-1">
          <mxGeometry width="50" height="50" relative="1" as="geometry">
            <mxPoint x="90" y="250" as="sourcePoint" />
            <mxPoint x="140" y="200" as="targetPoint" />
          </mxGeometry>
        </mxCell>
        <mxCell id="hVqU2oED-kjXTOKx9nI9-19" value="" style="endArrow=none;html=1;rounded=0;exitX=1.013;exitY=0.36;exitDx=0;exitDy=0;exitPerimeter=0;entryX=0;entryY=0.75;entryDx=0;entryDy=0;" edge="1" parent="1" source="hVqU2oED-kjXTOKx9nI9-7" target="hVqU2oED-kjXTOKx9nI9-1">
          <mxGeometry width="50" height="50" relative="1" as="geometry">
            <mxPoint x="90" y="300" as="sourcePoint" />
            <mxPoint x="140" y="250" as="targetPoint" />
          </mxGeometry>
        </mxCell>
        <mxCell id="hVqU2oED-kjXTOKx9nI9-20" value="" style="endArrow=none;html=1;rounded=0;exitX=1;exitY=0;exitDx=0;exitDy=0;entryX=0.067;entryY=1.05;entryDx=0;entryDy=0;entryPerimeter=0;" edge="1" parent="1" source="hVqU2oED-kjXTOKx9nI9-8" target="hVqU2oED-kjXTOKx9nI9-1">
          <mxGeometry width="50" height="50" relative="1" as="geometry">
            <mxPoint x="120" y="330" as="sourcePoint" />
            <mxPoint x="170" y="280" as="targetPoint" />
          </mxGeometry>
        </mxCell>
        <mxCell id="hVqU2oED-kjXTOKx9nI9-21" value="Reserva" style="rhombus;whiteSpace=wrap;html=1;" vertex="1" parent="1">
          <mxGeometry x="310" y="330" width="186" height="80" as="geometry" />
        </mxCell>
        <mxCell id="hVqU2oED-kjXTOKx9nI9-22" value="ID_Pista" style="ellipse;whiteSpace=wrap;html=1;" vertex="1" parent="1">
          <mxGeometry x="260" y="440" width="80" height="50" as="geometry" />
        </mxCell>
        <mxCell id="hVqU2oED-kjXTOKx9nI9-23" value="Nombre" style="ellipse;whiteSpace=wrap;html=1;" vertex="1" parent="1">
          <mxGeometry x="310" y="490" width="80" height="50" as="geometry" />
        </mxCell>
        <mxCell id="hVqU2oED-kjXTOKx9nI9-24" value="Tipo" style="ellipse;whiteSpace=wrap;html=1;" vertex="1" parent="1">
          <mxGeometry x="400" y="490" width="80" height="50" as="geometry" />
        </mxCell>
        <mxCell id="hVqU2oED-kjXTOKx9nI9-25" value="Disponibilidad " style="ellipse;whiteSpace=wrap;html=1;" vertex="1" parent="1">
          <mxGeometry x="450" y="440" width="80" height="50" as="geometry" />
        </mxCell>
        <mxCell id="hVqU2oED-kjXTOKx9nI9-26" value="Tipo" style="ellipse;whiteSpace=wrap;html=1;" vertex="1" parent="1">
          <mxGeometry x="405" y="495" width="70" height="40" as="geometry" />
        </mxCell>
        <mxCell id="hVqU2oED-kjXTOKx9nI9-27" value="ID_Reserva  " style="ellipse;whiteSpace=wrap;html=1;" vertex="1" parent="1">
          <mxGeometry x="520" y="130" width="80" height="50" as="geometry" />
        </mxCell>
        <mxCell id="hVqU2oED-kjXTOKx9nI9-28" value="Dni" style="ellipse;whiteSpace=wrap;html=1;" vertex="1" parent="1">
          <mxGeometry x="610" y="130" width="80" height="50" as="geometry" />
        </mxCell>
        <mxCell id="hVqU2oED-kjXTOKx9nI9-29" value="ID_Pista    " style="ellipse;whiteSpace=wrap;html=1;" vertex="1" parent="1">
          <mxGeometry x="690" y="150" width="80" height="50" as="geometry" />
        </mxCell>
        <mxCell id="hVqU2oED-kjXTOKx9nI9-30" value="Fecha       " style="ellipse;whiteSpace=wrap;html=1;" vertex="1" parent="1">
          <mxGeometry x="730" y="200" width="80" height="50" as="geometry" />
        </mxCell>
        <mxCell id="hVqU2oED-kjXTOKx9nI9-31" value="HoraInicio  " style="ellipse;whiteSpace=wrap;html=1;" vertex="1" parent="1">
          <mxGeometry x="730" y="260" width="80" height="50" as="geometry" />
        </mxCell>
        <mxCell id="hVqU2oED-kjXTOKx9nI9-32" value="HoraFin     " style="ellipse;whiteSpace=wrap;html=1;" vertex="1" parent="1">
          <mxGeometry x="680" y="310" width="80" height="50" as="geometry" />
        </mxCell>
        <mxCell id="hVqU2oED-kjXTOKx9nI9-33" value="" style="endArrow=none;html=1;rounded=0;exitX=0.763;exitY=0.02;exitDx=0;exitDy=0;exitPerimeter=0;entryX=0.258;entryY=0.838;entryDx=0;entryDy=0;entryPerimeter=0;" edge="1" parent="1" source="hVqU2oED-kjXTOKx9nI9-22" target="hVqU2oED-kjXTOKx9nI9-21">
          <mxGeometry width="50" height="50" relative="1" as="geometry">
            <mxPoint x="330" y="430" as="sourcePoint" />
            <mxPoint x="380" y="380" as="targetPoint" />
          </mxGeometry>
        </mxCell>
        <mxCell id="hVqU2oED-kjXTOKx9nI9-34" value="" style="endArrow=none;html=1;rounded=0;exitX=0.5;exitY=0;exitDx=0;exitDy=0;entryX=0.392;entryY=0.975;entryDx=0;entryDy=0;entryPerimeter=0;" edge="1" parent="1" source="hVqU2oED-kjXTOKx9nI9-23" target="hVqU2oED-kjXTOKx9nI9-21">
          <mxGeometry width="50" height="50" relative="1" as="geometry">
            <mxPoint x="360" y="490" as="sourcePoint" />
            <mxPoint x="410" y="440" as="targetPoint" />
          </mxGeometry>
        </mxCell>
        <mxCell id="hVqU2oED-kjXTOKx9nI9-35" value="" style="endArrow=none;html=1;rounded=0;exitX=0.263;exitY=-0.04;exitDx=0;exitDy=0;exitPerimeter=0;entryX=0.538;entryY=0.988;entryDx=0;entryDy=0;entryPerimeter=0;" edge="1" parent="1" source="hVqU2oED-kjXTOKx9nI9-24" target="hVqU2oED-kjXTOKx9nI9-21">
          <mxGeometry width="50" height="50" relative="1" as="geometry">
            <mxPoint x="410" y="490" as="sourcePoint" />
            <mxPoint x="460" y="440" as="targetPoint" />
          </mxGeometry>
        </mxCell>
        <mxCell id="hVqU2oED-kjXTOKx9nI9-36" value="" style="endArrow=none;html=1;rounded=0;exitX=0.288;exitY=-0.02;exitDx=0;exitDy=0;exitPerimeter=0;entryX=1;entryY=1;entryDx=0;entryDy=0;" edge="1" parent="1" source="hVqU2oED-kjXTOKx9nI9-25" target="hVqU2oED-kjXTOKx9nI9-21">
          <mxGeometry width="50" height="50" relative="1" as="geometry">
            <mxPoint x="470" y="450" as="sourcePoint" />
            <mxPoint x="520" y="400" as="targetPoint" />
          </mxGeometry>
        </mxCell>
        <mxCell id="hVqU2oED-kjXTOKx9nI9-37" value="" style="endArrow=none;html=1;rounded=0;entryX=0.625;entryY=1.08;entryDx=0;entryDy=0;entryPerimeter=0;" edge="1" parent="1" target="hVqU2oED-kjXTOKx9nI9-27">
          <mxGeometry width="50" height="50" relative="1" as="geometry">
            <mxPoint x="570" y="230" as="sourcePoint" />
            <mxPoint x="620" y="180" as="targetPoint" />
          </mxGeometry>
        </mxCell>
        <mxCell id="hVqU2oED-kjXTOKx9nI9-38" value="" style="endArrow=none;html=1;rounded=0;entryX=0.5;entryY=1;entryDx=0;entryDy=0;" edge="1" parent="1" target="hVqU2oED-kjXTOKx9nI9-28">
          <mxGeometry width="50" height="50" relative="1" as="geometry">
            <mxPoint x="620" y="230" as="sourcePoint" />
            <mxPoint x="670" y="180" as="targetPoint" />
          </mxGeometry>
        </mxCell>
        <mxCell id="hVqU2oED-kjXTOKx9nI9-39" value="" style="endArrow=none;html=1;rounded=0;entryX=0;entryY=1;entryDx=0;entryDy=0;" edge="1" parent="1" target="hVqU2oED-kjXTOKx9nI9-29">
          <mxGeometry width="50" height="50" relative="1" as="geometry">
            <mxPoint x="680" y="230" as="sourcePoint" />
            <mxPoint x="730" y="180" as="targetPoint" />
          </mxGeometry>
        </mxCell>
        <mxCell id="hVqU2oED-kjXTOKx9nI9-40" value="" style="endArrow=none;html=1;rounded=0;exitX=1;exitY=0.25;exitDx=0;exitDy=0;entryX=-0.037;entryY=0.66;entryDx=0;entryDy=0;entryPerimeter=0;" edge="1" parent="1" source="hVqU2oED-kjXTOKx9nI9-2" target="hVqU2oED-kjXTOKx9nI9-30">
          <mxGeometry width="50" height="50" relative="1" as="geometry">
            <mxPoint x="690" y="290" as="sourcePoint" />
            <mxPoint x="740" y="240" as="targetPoint" />
          </mxGeometry>
        </mxCell>
        <mxCell id="hVqU2oED-kjXTOKx9nI9-41" value="" style="endArrow=none;html=1;rounded=0;entryX=1;entryY=0.75;entryDx=0;entryDy=0;exitX=0;exitY=0.5;exitDx=0;exitDy=0;" edge="1" parent="1" source="hVqU2oED-kjXTOKx9nI9-31" target="hVqU2oED-kjXTOKx9nI9-2">
          <mxGeometry width="50" height="50" relative="1" as="geometry">
            <mxPoint x="700" y="310" as="sourcePoint" />
            <mxPoint x="750" y="260" as="targetPoint" />
          </mxGeometry>
        </mxCell>
        <mxCell id="hVqU2oED-kjXTOKx9nI9-42" value="" style="endArrow=none;html=1;rounded=0;entryX=0.883;entryY=1.05;entryDx=0;entryDy=0;entryPerimeter=0;exitX=0;exitY=0;exitDx=0;exitDy=0;" edge="1" parent="1" source="hVqU2oED-kjXTOKx9nI9-32" target="hVqU2oED-kjXTOKx9nI9-2">
          <mxGeometry width="50" height="50" relative="1" as="geometry">
            <mxPoint x="610" y="360" as="sourcePoint" />
            <mxPoint x="660" y="310" as="targetPoint" />
          </mxGeometry>
        </mxCell>
        <mxCell id="hVqU2oED-kjXTOKx9nI9-43" value="" style="endArrow=classic;startArrow=classic;html=1;rounded=0;exitX=0;exitY=0.5;exitDx=0;exitDy=0;" edge="1" parent="1" source="hVqU2oED-kjXTOKx9nI9-21">
          <mxGeometry width="50" height="50" relative="1" as="geometry">
            <mxPoint x="220" y="380" as="sourcePoint" />
            <mxPoint x="220" y="290" as="targetPoint" />
            <Array as="points">
              <mxPoint x="220" y="370" />
            </Array>
          </mxGeometry>
        </mxCell>
        <mxCell id="hVqU2oED-kjXTOKx9nI9-44" value="" style="endArrow=classic;startArrow=classic;html=1;rounded=0;exitX=1;exitY=0.5;exitDx=0;exitDy=0;" edge="1" parent="1" source="hVqU2oED-kjXTOKx9nI9-21">
          <mxGeometry width="50" height="50" relative="1" as="geometry">
            <mxPoint x="640" y="370" as="sourcePoint" />
            <mxPoint x="560" y="290" as="targetPoint" />
            <Array as="points">
              <mxPoint x="560" y="370" />
            </Array>
          </mxGeometry>
        </mxCell>
        <mxCell id="hVqU2oED-kjXTOKx9nI9-45" value="1 : N" style="text;html=1;align=center;verticalAlign=middle;resizable=0;points=[];autosize=1;strokeColor=none;fillColor=none;" vertex="1" parent="1">
          <mxGeometry x="215" y="298" width="50" height="30" as="geometry" />
        </mxCell>
        <mxCell id="hVqU2oED-kjXTOKx9nI9-46" value="1 : N" style="text;html=1;align=center;verticalAlign=middle;resizable=0;points=[];autosize=1;strokeColor=none;fillColor=none;" vertex="1" parent="1">
          <mxGeometry x="375" y="298" width="50" height="30" as="geometry" />
        </mxCell>
        <mxCell id="hVqU2oED-kjXTOKx9nI9-47" value="1 : 1" style="text;html=1;align=center;verticalAlign=middle;resizable=0;points=[];autosize=1;strokeColor=none;fillColor=none;" vertex="1" parent="1">
          <mxGeometry x="515" y="288" width="50" height="30" as="geometry" />
        </mxCell>
        <mxCell id="hVqU2oED-kjXTOKx9nI9-49" value="Permite_modificar" style="ellipse;whiteSpace=wrap;html=1;" vertex="1" parent="1">
          <mxGeometry x="295" y="190" width="105" height="50" as="geometry" />
        </mxCell>
        <mxCell id="hVqU2oED-kjXTOKx9nI9-50" value="" style="endArrow=none;html=1;rounded=0;exitX=1;exitY=0.5;exitDx=0;exitDy=0;entryX=0.048;entryY=0.82;entryDx=0;entryDy=0;entryPerimeter=0;" edge="1" parent="1" source="hVqU2oED-kjXTOKx9nI9-1" target="hVqU2oED-kjXTOKx9nI9-49">
          <mxGeometry width="50" height="50" relative="1" as="geometry">
            <mxPoint x="240" y="280" as="sourcePoint" />
            <mxPoint x="290" y="230" as="targetPoint" />
          </mxGeometry>
        </mxCell>
        <mxCell id="hVqU2oED-kjXTOKx9nI9-51" value="" style="endArrow=classic;startArrow=classic;html=1;rounded=0;entryX=0.5;entryY=1;entryDx=0;entryDy=0;" edge="1" parent="1" target="hVqU2oED-kjXTOKx9nI9-1">
          <mxGeometry width="50" height="50" relative="1" as="geometry">
            <mxPoint x="90" y="470" as="sourcePoint" />
            <mxPoint x="200" y="310" as="targetPoint" />
            <Array as="points">
              <mxPoint x="180" y="470" />
            </Array>
          </mxGeometry>
        </mxCell>
        <mxCell id="hVqU2oED-kjXTOKx9nI9-52" value="Comprueba" style="rhombus;whiteSpace=wrap;html=1;" vertex="1" parent="1">
          <mxGeometry x="-40" y="430" width="130" height="80" as="geometry" />
        </mxCell>
        <mxCell id="hVqU2oED-kjXTOKx9nI9-53" value="" style="endArrow=classic;startArrow=classic;html=1;rounded=0;" edge="1" parent="1">
          <mxGeometry width="50" height="50" relative="1" as="geometry">
            <mxPoint x="-200" y="380" as="sourcePoint" />
            <mxPoint x="-40" y="470" as="targetPoint" />
            <Array as="points">
              <mxPoint x="-200" y="470" />
            </Array>
          </mxGeometry>
        </mxCell>
        <mxCell id="hVqU2oED-kjXTOKx9nI9-54" value="ReservaUsuario" style="rounded=0;whiteSpace=wrap;html=1;" vertex="1" parent="1">
          <mxGeometry x="-260" y="320" width="120" height="60" as="geometry" />
        </mxCell>
        <mxCell id="hVqU2oED-kjXTOKx9nI9-55" value="ID_Reserva" style="ellipse;whiteSpace=wrap;html=1;" vertex="1" parent="1">
          <mxGeometry x="-310" y="238" width="80" height="50" as="geometry" />
        </mxCell>
        <mxCell id="hVqU2oED-kjXTOKx9nI9-56" value="Dni" style="ellipse;whiteSpace=wrap;html=1;" vertex="1" parent="1">
          <mxGeometry x="-190" y="238" width="80" height="50" as="geometry" />
        </mxCell>
        <mxCell id="hVqU2oED-kjXTOKx9nI9-57" value="" style="endArrow=none;html=1;rounded=0;entryX=0.5;entryY=1;entryDx=0;entryDy=0;exitX=0;exitY=0;exitDx=0;exitDy=0;" edge="1" parent="1" source="hVqU2oED-kjXTOKx9nI9-54" target="hVqU2oED-kjXTOKx9nI9-55">
          <mxGeometry width="50" height="50" relative="1" as="geometry">
            <mxPoint x="-290" y="350" as="sourcePoint" />
            <mxPoint x="-240" y="300" as="targetPoint" />
          </mxGeometry>
        </mxCell>
        <mxCell id="hVqU2oED-kjXTOKx9nI9-58" value="" style="endArrow=none;html=1;rounded=0;entryX=0.425;entryY=1.04;entryDx=0;entryDy=0;entryPerimeter=0;exitX=0.75;exitY=0;exitDx=0;exitDy=0;" edge="1" parent="1" source="hVqU2oED-kjXTOKx9nI9-54" target="hVqU2oED-kjXTOKx9nI9-56">
          <mxGeometry width="50" height="50" relative="1" as="geometry">
            <mxPoint x="-190" y="340" as="sourcePoint" />
            <mxPoint x="-140" y="290" as="targetPoint" />
          </mxGeometry>
        </mxCell>
        <mxCell id="hVqU2oED-kjXTOKx9nI9-59" value="1 : N" style="text;html=1;align=center;verticalAlign=middle;resizable=0;points=[];autosize=1;strokeColor=none;fillColor=none;" vertex="1" parent="1">
          <mxGeometry x="135" y="288" width="50" height="30" as="geometry" />
        </mxCell>
        <mxCell id="hVqU2oED-kjXTOKx9nI9-60" value="1 : N" style="text;html=1;align=center;verticalAlign=middle;resizable=0;points=[];autosize=1;strokeColor=none;fillColor=none;" vertex="1" parent="1">
          <mxGeometry y="398" width="50" height="30" as="geometry" />
        </mxCell>
        <mxCell id="hVqU2oED-kjXTOKx9nI9-61" value="N : 1" style="text;html=1;align=center;verticalAlign=middle;resizable=0;points=[];autosize=1;strokeColor=none;fillColor=none;" vertex="1" parent="1">
          <mxGeometry x="-205" y="388" width="50" height="30" as="geometry" />
        </mxCell>
      </root>
    </mxGraphModel>
  </diagram>
</mxfile>
